<svg xmlns="http://www.w3.org/2000/svg" xmlns:xlink="http://www.w3.org/1999/xlink" id="Camada_2" data-name="Camada 2" viewBox="0 0 598.12 225.66"><defs><style> .cls-1 { fill: #707070; } .cls-1, .cls-2, .cls-3, .cls-4, .cls-5, .cls-6, .cls-7, .cls-8, .cls-9, .cls-10, .cls-11 { stroke-width: 0px; } .cls-2 { fill: url(#Gradiente_sem_nome_216-3); } .cls-3 { fill: url(#Gradiente_sem_nome_216-4); } .cls-4 { fill: url(#Gradiente_sem_nome_216-2); } .cls-5 { fill: url(#Gradiente_sem_nome_216-8); } .cls-6 { fill: url(#Gradiente_sem_nome_216-6); } .cls-7 { fill: url(#Gradiente_sem_nome_216-5); } .cls-8 { fill: url(#Gradiente_sem_nome_216-10); } .cls-9 { fill: url(#Gradiente_sem_nome_216-9); } .cls-10 { fill: url(#Gradiente_sem_nome_216); } .cls-11 { fill: url(#Gradiente_sem_nome_216-7); } </style><linearGradient id="Gradiente_sem_nome_216" data-name="Gradiente sem nome 216" x1="527.22" y1="90.73" x2="549.77" y2="90.73" gradientUnits="userSpaceOnUse"><stop offset="0" stop-color="#f7bf77"></stop><stop offset="1" stop-color="#bf8f54"></stop></linearGradient><linearGradient id="Gradiente_sem_nome_216-2" data-name="Gradiente sem nome 216" x1="18.81" y1="54.93" x2="41.36" y2="54.93" xlink:href="#Gradiente_sem_nome_216"></linearGradient><linearGradient id="Gradiente_sem_nome_216-3" data-name="Gradiente sem nome 216" x1="25.76" y1="174.22" x2="576.41" y2="174.22" xlink:href="#Gradiente_sem_nome_216"></linearGradient><linearGradient id="Gradiente_sem_nome_216-4" data-name="Gradiente sem nome 216" x1="25.76" y1="188.22" x2="576.41" y2="188.22" xlink:href="#Gradiente_sem_nome_216"></linearGradient><linearGradient id="Gradiente_sem_nome_216-5" data-name="Gradiente sem nome 216" x1="25.76" y1="188.09" x2="576.41" y2="188.09" xlink:href="#Gradiente_sem_nome_216"></linearGradient><linearGradient id="Gradiente_sem_nome_216-6" data-name="Gradiente sem nome 216" x1="25.76" y1="188.14" x2="576.41" y2="188.14" xlink:href="#Gradiente_sem_nome_216"></linearGradient><linearGradient id="Gradiente_sem_nome_216-7" data-name="Gradiente sem nome 216" x1="25.76" y1="187.76" x2="576.41" y2="187.76" xlink:href="#Gradiente_sem_nome_216"></linearGradient><linearGradient id="Gradiente_sem_nome_216-8" data-name="Gradiente sem nome 216" x1="25.76" y1="188.2" x2="576.41" y2="188.2" xlink:href="#Gradiente_sem_nome_216"></linearGradient><linearGradient id="Gradiente_sem_nome_216-9" data-name="Gradiente sem nome 216" x1="25.76" y1="188.2" x2="576.41" y2="188.2" xlink:href="#Gradiente_sem_nome_216"></linearGradient><linearGradient id="Gradiente_sem_nome_216-10" data-name="Gradiente sem nome 216" x1="25.76" y1="188.1" x2="576.41" y2="188.1" xlink:href="#Gradiente_sem_nome_216"></linearGradient></defs><g id="Camada_1-2" data-name="Camada 1"><path class="cls-1" d="m109.58,80.56c.68,1.19,1.7,2.59,3.05,4.21,1.35,1.61,3.05,3.1,5.1,4.45s4.48,2.26,7.28,2.7h-29.57c1.92,0,3.7-.43,5.33-1.29,1.63-.86,2.99-2.02,4.07-3.48l-7.78-19.77h-32.78l-3.84,11.49c-.07.42-.1.85-.1,1.29,0,2.16.53,4.13,1.59,5.91,1.06,1.78,2.48,3.2,4.25,4.25,1.78,1.06,3.75,1.59,5.91,1.59h-29.57c3.51-.6,6.44-1.85,8.79-3.76,2.35-1.91,4.15-3.81,5.4-5.7,1.25-1.89,1.98-3.11,2.2-3.66l17.38-51.92h.03v-.07c.02-.07.04-.13.07-.2l.43-1.23c.26-.99.4-2.03.4-3.11,0-1.17-.15-2.28-.46-3.34-.2-.53-.42-.97-.66-1.32-.24-.35-.43-.6-.56-.73-1.59-1.46-3.73-2.23-6.42-2.32h14.44l.73,1.82,25.3,64.17Zm-44.77-14.73h31.62l-17.09-43.34-.13.36-1.03,3.11-.13.4-.96,2.85-12.28,36.62Z"></path><path class="cls-1" d="m315.95,29.31c0,1.56.29,3.02.88,4.38.59,1.37,1.39,2.56,2.42,3.59,1.03,1.03,2.23,1.84,3.59,2.42,1.36.58,2.83.87,4.38.87-1.56,0-3.02.29-4.38.88-1.37.59-2.56,1.39-3.59,2.42-1.03,1.03-1.84,2.23-2.42,3.59s-.88,2.83-.88,4.38c0-1.56-.29-3.02-.87-4.38-.58-1.36-1.39-2.56-2.42-3.59-1.03-1.03-2.23-1.84-3.59-2.42-1.36-.59-2.82-.88-4.38-.88,1.56,0,3.02-.29,4.38-.87,1.36-.58,2.56-1.39,3.59-2.42,1.03-1.03,1.84-2.23,2.42-3.59.58-1.36.87-2.83.87-4.38Z"></path><path class="cls-10" d="m538.49,79.46c0,1.56.29,3.02.88,4.38.59,1.37,1.39,2.56,2.42,3.59,1.03,1.03,2.23,1.84,3.59,2.42,1.36.58,2.83.87,4.38.87-1.56,0-3.02.29-4.38.88-1.37.59-2.56,1.39-3.59,2.42-1.03,1.03-1.84,2.23-2.42,3.59-.59,1.36-.88,2.83-.88,4.38,0-1.56-.29-3.02-.87-4.38-.58-1.36-1.39-2.56-2.42-3.59-1.03-1.03-2.23-1.84-3.59-2.42-1.36-.59-2.82-.88-4.38-.88,1.56,0,3.02-.29,4.38-.87,1.36-.58,2.56-1.39,3.59-2.42,1.03-1.03,1.84-2.23,2.42-3.59.58-1.36.87-2.83.87-4.38Z"></path><path class="cls-4" d="m30.08,43.65c0,1.56.29,3.02.88,4.38.59,1.37,1.39,2.56,2.42,3.59,1.03,1.03,2.23,1.84,3.59,2.42,1.36.58,2.83.87,4.38.87-1.56,0-3.02.29-4.38.88-1.37.59-2.56,1.39-3.59,2.42-1.03,1.03-1.84,2.23-2.42,3.59-.59,1.36-.88,2.83-.88,4.38,0-1.56-.29-3.02-.87-4.38-.58-1.36-1.39-2.56-2.42-3.59-1.03-1.03-2.23-1.84-3.59-2.42-1.36-.59-2.82-.88-4.38-.88,1.56,0,3.02-.29,4.38-.87,1.36-.58,2.56-1.39,3.59-2.42,1.03-1.03,1.84-2.23,2.42-3.59.58-1.36.87-2.83.87-4.38Z"></path><g><path class="cls-2" d="m65.51,126.63c-4.19-2.51-8.85-3.76-13.98-3.76h-30.6v.04h-4.22v-.04l-16.71-.04c3.72.18,6.92,1.39,9.61,3.65,2.68,2.26,4.43,5.14,5.25,8.66v78.17c-.15.68-.34,1.33-.57,1.98-1.08,3.02-2.9,5.46-5.45,7.32-2.55,1.86-5.5,2.85-8.84,2.97l16.71.04v-.04h21.28c-3.52,0-6.57-1.19-9.15-3.58-2.58-2.39-4.22-5.44-4.92-9.17v-30.07h27.61c5.13,0,9.79-1.25,13.98-3.76,4.19-2.51,7.54-5.85,10.05-10.05,2.51-4.19,3.76-8.85,3.76-13.98v-4.31c0-5.13-1.25-9.79-3.76-13.98-2.51-4.19-5.85-7.54-10.05-10.05Zm-1.52,36.62c-1.45,3.36-3.44,6.3-5.96,8.82-2.55,2.58-5.5,4.67-8.84,6.27-3.34,1.6-6.92,2.4-10.73,2.4h-14.55v-45.07c.94-4.84,3.33-8.46,7.17-10.86l7.25.13c5.13,0,9.8,1.23,14,3.69,4.21,2.46,7.56,5.77,10.07,9.94,2.51,4.16,3.76,8.79,3.76,13.89,0,3.84-.73,7.44-2.18,10.79Z"></path><path class="cls-3" d="m139.47,156.81c0-1.11-.29-2.14-.88-3.08-.91-1.41-2.21-2.27-3.91-2.59h-.04c-.15-.03-.28-.04-.4-.04-3.11-.38-6.23-.29-9.37.26-7.97,1.64-14.27,5.75-18.91,12.31v-12.88l-4.48,2.59-2.46,1.36-2.07,1.23h-.04l-12.44,7.12c1.06-.53,2.18-.79,3.39-.79,2.32,0,4.32.93,6.02,2.79,1.7,1.86,2.71,4.2,3.03,7.01v39.75c0,.15-.01.31-.04.48-.59,3.84-2.19,7.02-4.81,9.54-2.62,2.52-5.72,3.78-9.3,3.78h37.42c-3.58,0-6.68-1.26-9.32-3.78-2.64-2.52-4.24-5.7-4.79-9.54-.03-.18-.06-.34-.09-.48v-44.67c3.31-6.24,8.4-10.6,15.26-13.06,2.78-.94,5.63-1.44,8.53-1.49-1.2,1.14-1.8,2.54-1.8,4.18s.56,2.98,1.69,4.11c1.13,1.13,2.48,1.69,4.07,1.69s2.94-.56,4.07-1.69c1.13-1.13,1.69-2.5,1.69-4.11Z"></path><path class="cls-7" d="m206,169.23c-3.37-5.67-7.89-10.19-13.56-13.56-5.67-3.37-11.95-5.06-18.84-5.06s-13.17,1.69-18.84,5.06c-5.67,3.37-10.19,7.89-13.56,13.56-3.37,5.67-5.06,11.95-5.06,18.84s1.69,13.21,5.06,18.88c3.37,5.67,7.89,10.19,13.56,13.56,5.67,3.37,11.95,5.06,18.84,5.06s13.17-1.69,18.84-5.06,10.19-7.89,13.56-13.56c3.37-5.67,5.06-11.97,5.06-18.88s-1.69-13.17-5.06-18.84Zm-11.43,36.84c-2.17,5.41-5.09,9.72-8.75,12.93-3.66,3.21-7.72,4.81-12.18,4.81s-8.56-1.6-12.22-4.81c-3.66-3.21-6.58-7.52-8.75-12.93-2.17-5.41-3.25-11.41-3.25-18s1.08-12.55,3.25-17.96c2.17-5.41,5.08-9.72,8.75-12.93,3.66-3.21,7.74-4.81,12.22-4.81s8.51,1.6,12.18,4.81c3.66,3.21,6.58,7.52,8.75,12.93,2.17,5.41,3.25,11.4,3.25,17.96s-1.08,12.6-3.25,18Z"></path><path class="cls-6" d="m322.44,212.47v-35.39c0-1.93-.12-3.84-.35-5.72-.23-1.87-.7-3.71-1.41-5.5-3.08-6.98-8.24-11.61-15.48-13.89-4.07-1.14-8.13-1.22-12.18-.24-4.05.98-7.64,2.9-10.77,5.74-2.96,2.81-5.06,6.1-6.29,9.85-.18-.56-.38-1.13-.62-1.72-3.05-6.95-8.19-11.56-15.43-13.85-4.07-1.14-8.14-1.23-12.2-.26-4.06.97-7.64,2.89-10.75,5.76-1.41,1.32-2.62,2.76-3.65,4.31v-10.86l-.04.04-4.48,2.55-4.53,2.59h-.04l-12.44,7.12c1.05-.5,2.18-.75,3.39-.75,2.34,0,4.36.92,6.05,2.77,1.69,1.85,2.69,4.18,3.01,6.99,0,.06.01.12.04.18v2.24c0,.06-.01.12-.04.18v11.3h.04v25.81c-.03.18-.06.34-.09.48-.56,3.87-2.15,7.06-4.77,9.58-2.62,2.52-5.74,3.78-9.34,3.78h37.46c-3.61,0-6.72-1.26-9.34-3.78-2.62-2.52-4.23-5.72-4.81-9.58-.03-.15-.04-.31-.04-.48v-46.6c.29-.59.6-1.17.92-1.76,1.9-3.11,4.37-5.59,7.39-7.45,3.02-1.86,6.32-2.95,9.89-3.28,4.84,1.52,8.78,4.28,11.83,8.27,3.05,3.99,4.57,8.59,4.57,13.81v37.68c-.62,3.81-2.23,6.96-4.84,9.45-2.61,2.49-5.7,3.74-9.28,3.74h37.46c-3.58,0-6.67-1.24-9.28-3.71-2.61-2.48-4.22-5.61-4.84-9.39v-35.57c0-2.02-.12-4-.35-5.94.47-2.61,1.38-5.06,2.73-7.34,1.96-3.22,4.51-5.77,7.65-7.63,3.14-1.86,6.55-2.91,10.24-3.14,4.66,1.58,8.46,4.35,11.39,8.29,2.93,3.94,4.4,8.46,4.4,13.56v37.68c-.59,3.81-2.19,6.96-4.81,9.45-2.62,2.49-5.72,3.74-9.3,3.74h37.46c-3.55,0-6.62-1.24-9.23-3.71-2.61-2.48-4.24-5.61-4.88-9.39Z"></path><path class="cls-11" d="m396.93,178l-.04-.13c-1.35-6.21-4.02-11.73-8-16.55-3.99-4.82-9.07-8.2-15.26-10.13-6.19-1.76-12.31-1.58-18.38.53-5.89,2.2-10.77,5.79-14.64,10.77-4.22,5.54-6.87,11.74-7.94,18.6-1.07,6.86-.52,13.6,1.65,20.22,2.02,6.04,5.33,11.27,9.91,15.7,4.59,4.43,10.1,7.18,16.55,8.27,6.65.88,12.93-.31,18.82-3.56,5.95-3.49,10.52-8.31,13.72-14.46.79-1.55,1.49-3.14,2.11-4.75.09-.35.02-.62-.2-.81-.22-.19-.49-.26-.81-.22-.32.04-.56.23-.7.55-2.17,5.78-5.54,10.65-10.11,14.64-3.08,2.14-5.91,3.65-8.49,4.53-2.67.91-5.07,1.36-7.21,1.36-.47,0-.92-.01-1.36-.04-.29,0-.59-.03-.88-.09-2.67-.38-4.81-1.06-6.42-2.04-1.61-.98-2.65-1.74-3.12-2.26-.09-.09-.16-.16-.22-.22-.15-.12-.28-.23-.4-.35-.15-.15-.29-.29-.44-.44-.09-.09-.16-.18-.22-.26-.12-.12-.23-.23-.35-.35-.12-.15-.25-.29-.4-.44-.09-.09-.18-.19-.26-.31-.09-.12-.18-.23-.26-.35l-.09-.09c-.06-.09-.13-.18-.22-.26-.21-.29-.41-.59-.62-.88-.06-.06-.12-.13-.18-.22-.12-.18-.23-.35-.35-.53-.06-.09-.1-.18-.13-.26-.18-.26-.35-.53-.53-.79-.09-.18-.19-.35-.31-.53-.12-.21-.22-.4-.31-.57-.12-.2-.22-.4-.31-.57-.09-.2-.19-.4-.31-.57v-.09c-.12-.18-.22-.35-.31-.53-.29-.62-.57-1.25-.84-1.89-.06-.18-.13-.37-.22-.57-.03-.06-.06-.13-.09-.22-.06-.15-.12-.31-.18-.48v-.04c-.09-.21-.18-.42-.26-.66-.06-.15-.1-.29-.13-.44-.06-.12-.1-.23-.13-.35-.15-.41-.28-.84-.4-1.27-.06-.21-.12-.41-.18-.62-.03-.12-.06-.22-.09-.31-.03-.12-.06-.22-.09-.31-.06-.15-.1-.29-.13-.44,0-.06-.02-.12-.04-.18-.06-.18-.1-.35-.13-.53v-.04c-.06-.2-.12-.41-.18-.62-.03-.12-.06-.25-.09-.4,0-.06-.02-.12-.04-.18-.03-.23-.07-.47-.13-.7-.06-.35-.13-.69-.22-1.01,0-.12-.01-.22-.04-.31v-.13c-.03-.15-.06-.31-.09-.48-.03-.06-.04-.1-.04-.13-.03-.18-.06-.35-.09-.53v-.22c-.03-.18-.06-.34-.09-.48-.12-.7-.21-1.41-.26-2.11-.03-.21-.04-.41-.04-.62-.03-.03-.04-.06-.04-.09v-.04c0-.2-.02-.41-.04-.62v-.13c-.03-.15-.04-.29-.04-.44v-.04c-.03-.18-.04-.35-.04-.53v-.18c-.03-.21-.04-.4-.04-.57,0-.35-.02-.7-.04-1.06v-.26c-.03-.56-.04-1.11-.04-1.67v-.22c.06-6.36.95-12.1,2.68-17.21,1.73-5.11,4.05-9.21,6.97-12.29,2.92-3.08,6.16-4.62,9.74-4.62.15,0,.29.01.44.04.23,0,.48.01.75.04.15,0,.29.01.44.04,4.22.73,7.85,3.4,10.9,8,3.05,4.6,5.11,10.41,6.2,17.41h-30.47c-.38,0-.64.15-.77.44-.13.29-.13.59,0,.88.13.29.39.44.77.44h44.41l-.44-2.15c-.03-.12-.06-.25-.09-.4Z"></path><path class="cls-5" d="m447.89,191.63c-.18-.09-.34-.18-.48-.26-.06-.03-.13-.06-.22-.09-1.88-.97-3.84-1.77-5.89-2.42h-.04c-3.34-1.08-6.36-2.2-9.06-3.34-3.08-1.76-5.5-3.42-7.25-4.99-1.76-1.57-2.7-2.45-2.81-2.66-2.99-3.9-4.11-7.66-3.36-11.28.75-3.62,2.51-7.01,5.3-10.18.76-.79,1.55-1.43,2.35-1.91.81-.48,1.82-.9,3.03-1.25,1.22-.35,2.67-.51,4.37-.48,2.7.23,5.32.82,7.87,1.76,4.6,1.7,8.1,4.68,10.51,8.93.26.53.51,1.07.75,1.63-.82-.44-1.71-.66-2.68-.66-1.58,0-2.94.56-4.07,1.67-1.13,1.11-1.69,2.48-1.69,4.09s.56,2.94,1.69,4.07c1.13,1.13,2.48,1.69,4.07,1.69s2.94-.56,4.07-1.69c1.13-1.13,1.69-2.48,1.69-4.07,0-.47-.04-.92-.13-1.36-.32-1.79-.86-3.49-1.63-5.1-2.11-4.46-5.38-7.77-9.8-9.94-3.19-1.46-6.55-2.37-10.07-2.73-4.07-.47-8.1-.29-12.09.53-5.1,1.03-9.35,3.47-12.75,7.34-1.32,1.41-2.35,2.92-3.08,4.55-.73,1.63-1.1,3.33-1.1,5.12s.4,3.58,1.19,5.21c.79,1.63,1.86,3.14,3.21,4.55,2.14,2.17,4.69,4.12,7.65,5.85,1,.62,2.04,1.16,3.12,1.63.62.26,1.25.51,1.89.75l12.75,4.75c5.54,2.93,9.2,6.08,10.99,9.43,1.79,3.36,2.26,6.6,1.43,9.74-.84,3.14-2.41,5.86-4.73,8.16-2.32,2.3-4.81,3.88-7.47,4.73-.23.06-.58.12-1.03.2-.45.07-.88.13-1.27.18-.4.04-.64.07-.73.07-2.87-.09-5.73-.42-8.57-1.01-7.21-2.29-12.59-6.3-16.14-12.05-.76-1.35-1.38-2.74-1.85-4.18,1.08,1.03,2.39,1.54,3.91,1.54s2.94-.56,4.07-1.67c1.13-1.11,1.69-2.48,1.69-4.09s-.56-2.94-1.69-4.07c-1.13-1.13-2.48-1.69-4.07-1.69-2.11,0-3.75.94-4.92,2.81v-.04l-.09.18c-.18.29-.32.59-.44.88v.04c-.41,1-.65,2.04-.7,3.12v.31c0,.24.01.47.04.7v.09c.03.15.1.46.22.92.12.47.25.98.4,1.54.15.5.28.9.4,1.19.53,1.35,1.19,2.65,1.98,3.91.64,1.05,1.36,2.05,2.15,2.99.62.73,1.27,1.42,1.98,2.07,1.2,1.14,2.52,2.2,3.96,3.17,2.58,1.67,5.39,2.97,8.44,3.91.23.09.47.16.7.22,2.78.56,5.58.88,8.4.97,5.07.23,9.88-.72,14.42-2.86,4.4-1.64,7.91-3.85,10.55-6.62,2.64-2.77,3.96-5.84,3.96-9.21v-.13c-.15-3.17-1.46-5.99-3.94-8.49-2.48-2.49-5.59-4.7-9.34-6.64Z"></path><path class="cls-9" d="m511.74,191.63c-.18-.09-.34-.18-.48-.26-.06-.03-.13-.06-.22-.09-1.88-.97-3.84-1.77-5.89-2.42h-.04c-3.34-1.08-6.36-2.2-9.06-3.34-3.08-1.76-5.5-3.42-7.25-4.99-1.76-1.57-2.7-2.45-2.81-2.66-2.99-3.9-4.11-7.66-3.36-11.28.75-3.62,2.51-7.01,5.3-10.18.76-.79,1.55-1.43,2.35-1.91.81-.48,1.82-.9,3.03-1.25,1.22-.35,2.67-.51,4.37-.48,2.7.23,5.32.82,7.87,1.76,4.6,1.7,8.1,4.68,10.51,8.93.26.53.51,1.07.75,1.63-.82-.44-1.71-.66-2.68-.66-1.58,0-2.94.56-4.07,1.67-1.13,1.11-1.69,2.48-1.69,4.09s.56,2.94,1.69,4.07c1.13,1.13,2.48,1.69,4.07,1.69s2.94-.56,4.07-1.69,1.69-2.48,1.69-4.07c0-.47-.04-.92-.13-1.36-.32-1.79-.86-3.49-1.63-5.1-2.11-4.46-5.38-7.77-9.8-9.94-3.19-1.46-6.55-2.37-10.07-2.73-4.07-.47-8.1-.29-12.09.53-5.1,1.03-9.35,3.47-12.75,7.34-1.32,1.41-2.35,2.92-3.08,4.55-.73,1.63-1.1,3.33-1.1,5.12s.4,3.58,1.19,5.21c.79,1.63,1.86,3.14,3.21,4.55,2.14,2.17,4.69,4.12,7.65,5.85,1,.62,2.04,1.16,3.12,1.63.62.26,1.25.51,1.89.75l12.75,4.75c5.54,2.93,9.2,6.08,10.99,9.43,1.79,3.36,2.26,6.6,1.43,9.74-.84,3.14-2.41,5.86-4.73,8.16-2.32,2.3-4.81,3.88-7.47,4.73-.23.06-.58.12-1.03.2-.45.07-.88.13-1.27.18-.4.04-.64.07-.73.07-2.87-.09-5.73-.42-8.57-1.01-7.21-2.29-12.59-6.3-16.14-12.05-.76-1.35-1.38-2.74-1.85-4.18,1.08,1.03,2.39,1.54,3.91,1.54s2.94-.56,4.07-1.67c1.13-1.11,1.69-2.48,1.69-4.09s-.56-2.94-1.69-4.07c-1.13-1.13-2.48-1.69-4.07-1.69-2.11,0-3.75.94-4.92,2.81v-.04l-.09.18c-.18.29-.32.59-.44.88v.04c-.41,1-.64,2.04-.7,3.12v.31c0,.24.01.47.04.7v.09c.03.15.1.46.22.92.12.47.25.98.4,1.54.15.5.28.9.4,1.19.53,1.35,1.19,2.65,1.98,3.91.64,1.05,1.36,2.05,2.15,2.99.62.73,1.27,1.42,1.98,2.07,1.2,1.14,2.52,2.2,3.96,3.17,2.58,1.67,5.39,2.97,8.44,3.91.23.09.47.16.7.22,2.78.56,5.58.88,8.4.97,5.07.23,9.88-.72,14.42-2.86,4.4-1.64,7.91-3.85,10.55-6.62,2.64-2.77,3.96-5.84,3.96-9.21v-.13c-.15-3.17-1.46-5.99-3.94-8.49-2.48-2.49-5.59-4.7-9.34-6.64Z"></path><path class="cls-8" d="m588.67,221.68c-2.64-2.59-4.21-5.88-4.7-9.87v-43.92c0-2.67-.62-5.19-1.85-7.56-1.55-3.02-3.9-5.36-7.03-7.03-.06-.03-.12-.06-.18-.09-.06-.03-.12-.06-.18-.09-.03-.03-.06-.04-.09-.04-.91-.5-1.86-.91-2.86-1.23-1.23-.47-2.45-.78-3.65-.92-5.25-.85-10.07.21-14.46,3.17-3.22,2.4-5.83,5.34-7.83,8.79-.85,1.06-1.27,2.27-1.27,3.65,0,1.58.56,2.94,1.69,4.07,1.13,1.13,2.48,1.69,4.07,1.69s2.94-.56,4.07-1.69c1.13-1.13,1.69-2.48,1.69-4.07s-.56-2.98-1.69-4.11c-1.13-1.13-2.48-1.69-4.07-1.69-.32,0-.65.03-.97.09,1.49-1.99,3.22-3.71,5.19-5.14s4.19-2.43,6.68-2.99c2.99-.56,5.96-.38,8.93.53.73.79,1.46,1.91,2.18,3.36.72,1.45,1.33,3.28,1.82,5.5.5,2.21.75,4.89.75,8.02,0,.94-.02,1.91-.04,2.9,0,2.14.01,4.48.04,7.03v5.14c-1.67-2.2-3.66-4.07-5.98-5.63-4.34-2.84-9.04-4.21-14.11-4.09-3.31.09-6.51.81-9.58,2.15-3.78,1.76-6.92,4.29-9.41,7.58-2.49,3.3-4.09,7-4.79,11.1-.64,4.22-.3,8.32,1.03,12.29,1.33,3.97,3.57,7.42,6.7,10.35,2.34,2.14,4.97,3.77,7.87,4.88,5.48,2.08,11.06,2.18,16.75.31,1.17-.44,2.32-.95,3.43-1.54.32-.18.47-.42.44-.73-.03-.31-.17-.55-.42-.73-.25-.18-.55-.19-.9-.04-3.84,1.96-7.84,2.8-12,2.51-2.96-1.58-5.37-4.54-7.23-8.86-1.86-4.32-2.79-9.33-2.79-15.01,0-4.84.7-9.22,2.09-13.15,1.39-3.93,3.25-6.95,5.56-9.06,4.89-.82,9.6-.12,14.11,2.11,3.93,2.08,7,4.98,9.23,8.71v30.25c0,1.93.67,3.59,2.02,4.97,1.14,1.11,2.54,1.77,4.18,1.98.26.03.53.04.79.04h16.22c-3.66,0-6.81-1.3-9.45-3.89Z"></path></g><path class="cls-1" d="m214.06,27l16.27-.04c-3.96.18-7.31,1.51-10.07,4-2.76,2.49-4.44,5.66-5.06,9.5v54.17c0,5.92-1.34,11.37-4.02,16.33-2.68,4.97-6.3,9.06-10.86,12.29-4.56,3.23-9.72,5.23-15.5,6.02-1.47.2-2.98.31-4.53.31-5.86,0-11.28-1.35-16.27-4.05-3.72-1.96-6.98-4.51-9.76-7.63-2.79-3.12-4.96-6.66-6.53-10.62-1.57-3.96-2.35-8.18-2.35-12.66v-53.02c-.32-4.1-1.9-7.52-4.73-10.24-2.83-2.73-6.31-4.19-10.44-4.4l15.43.04h7.21l16.71-.04c-4.02.18-7.41,1.55-10.18,4.11-2.77,2.57-4.42,5.81-4.95,9.74v53.81c0,6.27,1.5,12.01,4.51,17.21,3,5.2,7.03,9.37,12.07,12.51.06.06.91.41,2.55,1.05,1.64.65,3.77,1.17,6.4,1.56,2.62.4,5.43.3,8.42-.29,1.73-.41,3.41-.95,5.06-1.63,3.9-1.9,7.32-4.43,10.27-7.58,2.95-3.15,5.25-6.76,6.92-10.84,1.67-4.07,2.51-8.41,2.51-13.01v-52.5c-.47-3.99-2.1-7.3-4.88-9.94-2.78-2.64-6.21-4.05-10.29-4.22l15.17.04h.92Zm-13.85-22.91l-15.3,11.52-1.8-2.07,13.54-13.54,3.56,4.09Zm-13.06,122.84h-.04.04Zm1.06-.22c-.21.03-.5.09-.88.18.29-.06.59-.12.88-.18Z"></path><path class="cls-1" d="m259.32,129.26h-37.42c3.58,0,6.67-1.26,9.3-3.78,2.62-2.52,4.23-5.72,4.81-9.58.03-.15.04-.31.04-.48V47.92c-.32-2.81-1.33-5.14-3.03-6.99-1.7-1.85-3.72-2.77-6.07-2.77-1.17,0-2.29.26-3.34.79l12.44-7.12v-.04h.04l4.53-2.59,4.48-2.55v-.04,88.81c.03.18.06.34.09.48.56,3.87,2.15,7.06,4.77,9.58,2.62,2.52,5.74,3.78,9.34,3.78Z"></path><path class="cls-1" d="m322.44,115.9c.56,3.87,2.15,7.06,4.77,9.58,2.62,2.52,5.74,3.78,9.34,3.78h-37.46c3.6,0,6.72-1.26,9.34-3.78,2.62-2.52,4.23-5.72,4.81-9.58.03-.15.04-.31.04-.48v-25.85.04-13.89c-.32-2.81-1.33-5.15-3.03-7.01-1.7-1.86-3.72-2.79-6.07-2.79-1.17,0-2.3.26-3.39.79l12.49-7.12v-.04l4.53-2.55,4.53-2.59v61.03c.03.18.06.34.09.48Z"></path><path class="cls-1" d="m440.94,116.12c.64,3.78,2.27,6.91,4.88,9.39,2.61,2.48,5.69,3.71,9.23,3.71h-37.46c3.58,0,6.67-1.25,9.3-3.74,2.62-2.49,4.23-5.64,4.81-9.45v-37.68c0-5.1-1.47-9.62-4.4-13.56-2.93-3.94-6.73-6.7-11.39-8.29-3.69.24-7.11,1.28-10.24,3.14-3.14,1.86-5.69,4.4-7.65,7.63-1.35,2.29-2.26,4.73-2.73,7.34.23,1.93.35,3.91.35,5.94v35.57c.62,3.78,2.23,6.91,4.84,9.39,2.61,2.48,5.7,3.71,9.28,3.71h-37.46c3.58,0,6.67-1.25,9.28-3.74,2.61-2.49,4.22-5.64,4.84-9.45v-37.68c0-5.22-1.52-9.82-4.57-13.81-3.05-3.99-6.99-6.74-11.83-8.27-3.58.32-6.87,1.41-9.89,3.28-3.02,1.86-5.48,4.35-7.39,7.45-.32.59-.63,1.17-.92,1.76v46.6c0,.18.01.34.04.48.59,3.87,2.19,7.06,4.81,9.58,2.62,2.52,5.74,3.78,9.34,3.78h-37.46c3.6,0,6.72-1.26,9.34-3.78,2.62-2.52,4.21-5.72,4.77-9.58.03-.15.06-.31.09-.48v-25.81h-.04v-11.3c.03-.06.04-.12.04-.18v-2.24c-.03-.06-.04-.12-.04-.18-.32-2.81-1.33-5.14-3.01-6.99-1.69-1.85-3.7-2.77-6.05-2.77-1.2,0-2.33.25-3.39.75l12.44-7.12h.04l4.53-2.59,4.48-2.55.04-.04v10.86c1.03-1.55,2.24-2.99,3.65-4.31,3.11-2.87,6.69-4.79,10.75-5.76,4.06-.97,8.13-.88,12.2.26,7.24,2.29,12.38,6.9,15.43,13.85.23.59.44,1.16.62,1.71,1.23-3.75,3.33-7.03,6.29-9.85,3.14-2.84,6.73-4.76,10.77-5.74,4.04-.98,8.1-.9,12.18.24,7.24,2.29,12.4,6.92,15.48,13.89.7,1.79,1.17,3.62,1.41,5.5.23,1.88.35,3.78.35,5.72v35.39Z"></path><path class="cls-1" d="m502.32,115.46c.5,3.99,2.07,7.28,4.7,9.87,2.64,2.59,5.79,3.89,9.45,3.89h-16.22c-.26,0-.53-.01-.79-.04-1.64-.2-3.03-.86-4.18-1.98-1.35-1.38-2.02-3.03-2.02-4.97v-30.25c-2.23-3.72-5.31-6.62-9.23-8.71-4.51-2.23-9.22-2.93-14.11-2.11-2.32,2.11-4.17,5.13-5.56,9.06-1.39,3.93-2.09,8.31-2.09,13.15,0,5.69.93,10.69,2.79,15.01,1.86,4.32,4.27,7.28,7.23,8.86,4.16.29,8.16-.54,12-2.51.35-.15.65-.13.9.04.25.18.39.42.42.73.03.31-.12.55-.44.73-1.11.59-2.26,1.1-3.43,1.54-5.69,1.88-11.27,1.77-16.75-.31-2.9-1.11-5.53-2.74-7.87-4.88-3.14-2.93-5.37-6.38-6.7-10.35-1.33-3.97-1.68-8.07-1.03-12.29.7-4.1,2.3-7.8,4.79-11.1,2.49-3.3,5.63-5.83,9.41-7.58,3.08-1.35,6.27-2.07,9.58-2.15,5.07-.12,9.78,1.25,14.11,4.09,2.32,1.55,4.31,3.43,5.98,5.63v-5.14c-.03-2.55-.04-4.89-.04-7.03.03-1,.04-1.96.04-2.9,0-3.14-.25-5.81-.75-8.02-.5-2.21-1.11-4.05-1.82-5.5-.72-1.45-1.44-2.57-2.18-3.36-2.96-.91-5.94-1.08-8.93-.53-2.49.56-4.72,1.55-6.68,2.99-1.96,1.44-3.69,3.15-5.19,5.14.32-.06.64-.09.97-.09,1.58,0,2.94.56,4.07,1.69,1.13,1.13,1.69,2.5,1.69,4.11s-.56,2.94-1.69,4.07c-1.13,1.13-2.48,1.69-4.07,1.69s-2.94-.56-4.07-1.69c-1.13-1.13-1.69-2.48-1.69-4.07,0-1.38.42-2.59,1.27-3.65,1.99-3.46,4.6-6.39,7.83-8.79,4.4-2.96,9.22-4.02,14.46-3.17,1.2.15,2.42.45,3.65.92,1,.32,1.95.73,2.86,1.23.03,0,.06.02.09.04.06.03.12.06.18.09.06.03.12.06.18.09,3.14,1.67,5.48,4.02,7.03,7.03,1.23,2.37,1.85,4.9,1.85,7.56v43.92Z"></path><path class="cls-1" d="m302.42,113.26c-.09-.23-.25-.4-.48-.48-.24-.09-.47-.09-.7-.02-.23.07-.4.27-.48.59-1.2,4.34-3.62,7.97-7.25,10.9h-.18c-1.67.06-3.63-.19-5.87-.75-2.24-.56-4.46-1.68-6.66-3.36-2.2-1.69-4.07-4.19-5.63-7.52-1.55-3.33-2.48-7.74-2.77-13.26,0-.06-.02-.12-.04-.18v-34.47h21.06c1.67.09,3.33.09,4.97,0h.13c.38,0,.64-.15.77-.44.13-.29.13-.59,0-.88-.13-.29-.39-.44-.77-.44h-26.16l.04-9.85v-26.16l-.04.04-4.48,2.55-4.53,2.59-.04.04-12.44,7.12c1.06-.53,2.18-.79,3.39-.79,2.34,0,4.36.92,6.05,2.77,1.69,1.85,2.69,4.19,3.01,7.03,0,.03.01.07.04.13v2.24c0,.06-.02.12-.04.18v11.3h.04v.79h-11.13v1.76h11.13v34.65c-.03.38-.04.76-.04,1.14-.06,2.2-.04,4.24.04,6.11v2.9c.06.59.12,1.16.18,1.71.97,6.33,3.9,11.21,8.79,14.64,1.06.7,2.15,1.3,3.3,1.8.76.32,1.54.6,2.33.84,1.06.29,2.12.5,3.21.62.67.09,1.35.13,2.02.13,1.14,0,2.27-.1,3.39-.31h.04c.26-.06.54-.12.84-.18,2.4-.7,4.44-1.58,6.11-2.64h.04c.53-.35,1.06-.73,1.58-1.14.06-.03.11-.07.15-.11s.08-.08.11-.11c.03-.03.06-.04.09-.04v-.04h.04c1.03-.88,1.96-1.86,2.81-2.95h.04c1.11-1.49,2.05-3.09,2.81-4.79h.04c.15-.38.29-.75.44-1.1.29-.67.54-1.36.75-2.07.03-.18.01-.35-.04-.53Z"></path></g></svg>